Patient4_TMGait_0pt8_01_right_35_GRF.mot
version=1
nRows=78
nColumns=19
inDegrees=no
endheader
time	F1x	F1y	F1z	M1x	M1y	M1z	F2x	F2y	F2z	M2x	M2y	M2z	EC1x	EC1y	EC1z	EC2x	EC2y	EC2z
39.19	17.7836	732.275	69.4608	-258.7863	-65.7395	814.2805	3.2468	-0.40929	2.9236	-0.88907	-4.5041	6.7683	-0.0592	0.0182	-0.0073	-0.0462	0.0165	0.9585
39.2014	13.2846	727.1547	68.3927	-256.3376	-66.426	803.1314	2.0598	0.8857	2.0956	-0.19913	-3.05	6.0624	-0.0592	0.0182	-0.0073	-0.0462	0.0165	0.9585
39.2127	9.8834	721.8529	67.3064	-253.7511	-66.6014	791.6798	1.0493	2.0037	1.31	0.41766	-1.7615	5.4845	-0.0592	0.0182	-0.0073	-0.0462	0.0165	0.9585
39.2241	7.8244	717.0149	66.2982	-251.307	-66.2499	780.8461	0.2728	2.8868	0.65822	0.91857	-0.73959	5.0724	-0.0592	0.0182	-0.0073	-0.0462	0.0165	0.9585
39.2354	7.0839	713.2921	65.4164	-249.2723	-65.4313	771.4311	-0.27541	3.5395	0.15676	1.2975	0.012936	4.8289	-0.0592	0.0182	-0.0073	-0.0462	0.0165	0.9585
39.2468	7.5328	711.1962	64.6798	-247.849	-64.2332	763.9926	-0.62243	3.9629	-0.20427	1.5581	0.52683	4.6914	-0.0592	0.0182	-0.0073	-0.0462	0.0165	0.9585
39.2581	8.961	711.0359	64.1148	-247.1493	-62.7806	758.7935	-0.82887	4.1838	-0.44272	1.712	0.85231	4.6041	-0.0592	0.0182	-0.0073	-0.0462	0.0165	0.9585
39.2695	11.1914	712.8537	63.7321	-247.179	-61.1729	755.8019	-0.9397	4.2018	-0.60673	1.763	1.0634	4.4764	-0.0592	0.0182	-0.0073	-0.0462	0.0165	0.9585
39.2809	14.067	716.478	63.5395	-247.8531	-59.5021	754.7547	-1.0094	3.9998	-0.72482	1.7063	1.2156	4.2052	-0.0592	0.0182	-0.0073	-0.0462	0.0165	0.9585
39.2922	17.4227	721.5188	63.5429	-249.0044	-57.8513	755.1912	-1.0682	3.5246	-0.83432	1.5226	1.3618	3.6552	-0.0592	0.0182	-0.0073	-0.0462	0.0165	0.9585
39.3036	21.1317	727.5087	63.7425	-250.441	-56.2755	756.6125	-1.1393	2.702	-0.94735	1.1821	1.5228	2.6979	-0.0592	0.0182	-0.0073	-0.0462	0.0165	0.9585
39.3149	25.0491	733.9644	64.1545	-251.976	-54.8394	758.5101	-1.2041	1.4238	-1.0681	0.64358	1.6973	1.1668	-0.0592	0.0182	-0.0073	-0.0462	0.0165	0.9585
39.3263	29.0583	740.5079	64.7799	-253.4661	-53.5798	760.4834	-1.2377	-0.38455	-1.1857	-0.12073	1.8583	-1.0525	-0.0592	0.0182	-0.0073	-0.0462	0.0165	0.9585
39.3376	33.1161	746.9148	65.6286	-254.8287	-52.5089	762.2785	-1.1765	-2.7457	-1.2713	-1.1118	1.941	-3.9887	-0.0592	0.0182	-0.0073	-0.0462	0.0165	0.9585
39.349	37.1935	753.07	66.6928	-256.0266	-51.6103	763.7425	-0.9469	-5.5241	-1.2777	-2.2681	1.8491	-7.4685	-0.0592	0.0182	-0.0073	-0.0462	0.0165	0.9585
39.3604	41.3077	758.8897	67.9797	-257.0382	-50.8727	764.7811	-0.44411	-8.3673	-1.1198	-3.4343	1.4311	-11.0627	-0.0592	0.0182	-0.0073	-0.0462	0.0165	0.9585
39.3717	45.4698	764.2397	69.4639	-257.8321	-50.2647	765.2535	0.43781	-10.5738	-0.69822	-4.3162	0.5118	-13.8823	-0.0592	0.0182	-0.0073	-0.0462	0.0165	0.9585
39.3831	49.6683	768.863	71.1048	-258.3395	-49.7527	764.8995	1.8204	-11.0142	0.1392	-4.4432	-1.1428	-14.4921	-0.0592	0.0182	-0.0073	-0.0462	0.0165	0.9585
39.3944	53.906	772.3584	72.8116	-258.4528	-49.2632	763.3401	3.7491	-8.0366	1.5388	-3.1369	-3.7393	-10.7608	-0.0592	0.0182	-0.0073	-0.0462	0.0165	0.9585
39.4058	58.1674	774.1771	74.454	-258.0229	-48.698	760.0623	6.1993	0.53837	3.6462	0.4908	-7.4376	0.11536	-0.0592	0.0182	-0.0073	-0.0462	0.0165	0.9585
39.4171	62.4414	773.5938	75.8717	-256.8481	-47.9313	754.4143	8.9469	17.2997	6.5241	7.483	-12.2102	21.4687	-0.0592	0.0182	-0.0073	-0.0462	0.0165	0.9585
39.4285	66.6926	769.6361	76.862	-254.6408	-46.8085	745.5472	11.5286	44.9093	10.0955	18.8999	-17.7397	56.7313	-0.0592	0.0182	-0.0073	-0.0462	0.0165	0.9585
39.4399	70.7749	761.0119	77.2016	-251.0042	-45.1871	732.3372	13.1231	85.4506	14.0203	35.5486	-23.2217	108.6079	-0.0592	0.0182	-0.0073	-0.0462	0.0165	0.9585
39.4512	74.4899	746.1833	76.6118	-245.458	-42.8966	713.4833	12.4634	139.4125	17.575	57.569	-27.1847	177.7608	-0.0592	0.0182	-0.0073	-0.0462	0.0165	0.9585
39.4626	77.5044	723.4726	74.8025	-237.4734	-39.8007	687.5731	7.8999	204.5032	19.6488	83.9427	-27.5585	261.3039	-0.0592	0.0182	-0.0073	-0.0462	0.0165	0.9585
39.4739	79.3681	691.3232	71.4841	-226.5524	-35.8111	653.3027	-1.424	274.819	18.872	112.1726	-22.2712	351.6987	-0.0592	0.0182	-0.0073	-0.0462	0.0165	0.9585
39.4853	79.5854	648.6329	66.5193	-212.3353	-31.0043	609.7974	-14.0034	341.6863	13.8012	138.6935	-10.2964	437.7046	-0.0592	0.0182	-0.0073	-0.0462	0.0165	0.9585
39.4966	77.6659	595.1515	59.9973	-194.7266	-25.657	556.9393	-27.0907	398.2093	4.641	160.7564	6.8667	510.116	-0.0592	0.0182	-0.0073	-0.0462	0.0165	0.9585
39.508	73.2759	531.9159	52.3081	-174.0241	-20.2424	495.7665	-38.9949	443.3833	-6.9783	178.0008	26.4618	567.3344	-0.0592	0.0182	-0.0073	-0.0462	0.0165	0.9585
39.5194	66.3893	461.2098	44.0564	-150.9216	-15.2988	428.4031	-49.0691	480.7015	-19.4497	191.9088	46.2311	613.6368	-0.0592	0.0182	-0.0073	-0.0462	0.0165	0.9585
39.5307	57.2466	386.3585	35.9014	-126.4565	-11.3024	357.8837	-57.172	514.8739	-31.2072	204.4686	64.198	655.0556	-0.0592	0.0182	-0.0073	-0.0462	0.0165	0.9585
39.5421	46.4099	311.2983	28.3442	-101.8933	-8.4804	287.7566	-63.2487	549.2273	-41.0971	217.1136	78.9473	695.8808	-0.0592	0.0182	-0.0073	-0.0462	0.0165	0.9585
39.5534	34.7227	240.1131	21.7035	-78.5679	-6.7943	221.6698	-67.3757	584.768	-48.5607	230.3183	89.8274	737.4587	-0.0592	0.0182	-0.0073	-0.0462	0.0165	0.9585
39.5648	23.3091	176.3512	16.1333	-57.6554	-5.9642	162.7266	-69.6004	620.724	-53.6775	243.7953	96.9778	778.8563	-0.0592	0.0182	-0.0073	-0.0462	0.0165	0.9585
39.5761	13.2824	122.3654	11.6654	-39.9416	-5.6143	112.9537	-70.1568	655.5045	-57.0231	256.8864	101.1962	818.2061	-0.0592	0.0182	-0.0073	-0.0462	0.0165	0.9585
39.5875	5.3645	79.087	8.1914	-25.7467	-5.3866	73.0959	-69.3355	687.3749	-59.3075	268.8619	103.4821	853.4734	-0.0592	0.0182	-0.0073	-0.0462	0.0165	0.9585
39.5989	-0.21415	46.2614	5.5071	-14.9977	-5.0135	42.8836	-67.5783	714.8218	-61.1255	279.0823	104.7466	882.9794	-0.0592	0.0182	-0.0073	-0.0462	0.0165	0.9585
39.6102	-3.5276	22.8637	3.46	-7.3555	-4.3951	21.3676	-65.3555	736.7414	-62.8109	287.1	105.595	905.5124	-0.0592	0.0182	-0.0073	-0.0462	0.0165	0.9585
39.6216	-4.9168	7.4124	1.9096	-2.3273	-3.5313	7.1823	-63.0844	752.7451	-64.4442	292.7628	106.2911	920.704	-0.0592	0.0182	-0.0073	-0.0462	0.0165	0.9585
39.6329	-4.9326	-1.7117	0.79227	0.62693	-2.5661	-1.1715	-60.916	763.0925	-65.8554	296.202	106.708	928.9122	-0.0592	0.0182	-0.0073	-0.0462	0.0165	0.9585
39.6443	-4.218	-6.1256	0.066263	2.0448	-1.6851	-5.1741	-58.8791	768.6038	-66.7871	297.7658	106.557	931.1565	-0.0592	0.0182	-0.0073	-0.0462	0.0165	0.9585
39.6556	-3.2121	-7.4027	-0.33122	2.4429	-0.98942	-6.2866	-56.8984	770.3101	-67.0673	297.8795	105.6131	928.6877	-0.0592	0.0182	-0.0073	-0.0462	0.0165	0.9585
39.667	-2.19	-6.7851	-0.5063	2.2309	-0.48466	-5.6569	-54.9196	769.227	-66.6917	296.9447	103.8515	922.7612	-0.0592	0.0182	-0.0073	-0.0462	0.0165	0.9585
39.6784	-1.3185	-5.2709	-0.51698	1.7295	-0.17797	-4.2292	-52.8791	766.1773	-65.7936	295.2763	101.4118	914.3858	-0.0592	0.0182	-0.0073	-0.0462	0.0165	0.9585
39.6897	-0.66061	-3.4875	-0.44351	1.1402	-0.019269	-2.5854	-50.7972	761.792	-64.5323	293.1064	98.4993	904.3665	-0.0592	0.0182	-0.0073	-0.0462	0.0165	0.9585
39.7011	-0.2141	-1.8374	-0.31674	0.59094	0.022045	-1.1045	-48.6744	756.5771	-63.0642	290.6191	95.3166	893.3443	-0.0592	0.0182	-0.0073	-0.0462	0.0165	0.9585
39.7124	0.033947	-0.5083	-0.17753	0.1436	-0.0095859	0.047178	-46.5216	751.0417	-61.517	287.9969	92.0323	881.9167	-0.0592	0.0182	-0.0073	-0.0462	0.0165	0.9585
39.7238	0.14773	0.45512	-0.046905	-0.18488	-0.076269	0.84926	-44.3232	745.6413	-59.9934	285.4066	88.7686	870.5925	-0.0592	0.0182	-0.0073	-0.0462	0.0165	0.9585
39.7351	0.1671	1.0701	0.059659	-0.40208	-0.14873	1.3284	-42.0448	740.7774	-58.56	282.9937	85.5959	859.8134	-0.0592	0.0182	-0.0073	-0.0462	0.0165	0.9585
39.7465	0.1324	1.4254	0.13225	-0.53524	-0.20564	1.5747	-39.665	736.7113	-57.2819	280.8546	82.5756	849.8512	-0.0592	0.0182	-0.0073	-0.0462	0.0165	0.9585
39.7579	0.082977	1.5938	0.17621	-0.6055	-0.24211	1.6734	-37.1334	733.5951	-56.2034	279.0462	79.7385	840.8483	-0.0592	0.0182	-0.0073	-0.0462	0.0165	0.9585
39.7692	0.021695	1.6654	0.18351	-0.64062	-0.24952	1.7048	-34.4001	731.5149	-55.3667	277.6007	77.1096	832.8763	-0.0592	0.0182	-0.0073	-0.0462	0.0165	0.9585
39.7806	-0.028906	1.6915	0.17662	-0.65879	-0.24249	1.7285	-31.4269	730.4979	-54.7876	276.5338	74.6871	825.9457	-0.0592	0.0182	-0.0073	-0.0462	0.0165	0.9585
39.7919	-0.069678	1.7083	0.15672	-0.67231	-0.22333	1.7872	-28.1734	730.5449	-54.4848	275.8529	72.4712	820.0335	-0.0592	0.0182	-0.0073	-0.0462	0.0165	0.9585
39.8033	-0.11244	1.7277	0.14127	-0.68246	-0.21447	1.8806	-24.6035	731.6014	-54.438	275.5557	70.4298	815.0448	-0.0592	0.0182	-0.0073	-0.0462	0.0165	0.9585
39.8146	-0.16292	1.7341	0.13064	-0.68178	-0.22355	1.993	-20.7189	733.6264	-54.6139	275.6487	68.5267	810.9179	-0.0592	0.0182	-0.0073	-0.0462	0.0165	0.9585
39.826	-0.23487	1.6841	0.13983	-0.65519	-0.27437	2.0353	-16.5152	736.5328	-54.9495	276.1243	66.6982	807.5559	-0.0592	0.0182	-0.0073	-0.0462	0.0165	0.9585
39.8374	-0.34655	1.5134	0.17851	-0.57923	-0.38294	1.918	-12.02	740.1756	-55.3653	276.9479	64.8767	804.8318	-0.0592	0.0182	-0.0073	-0.0462	0.0165	0.9585
39.8487	-0.48071	1.1357	0.2552	-0.42422	-0.55196	1.5156	-7.2522	744.3597	-55.8037	278.0577	63.0082	802.5491	-0.0592	0.0182	-0.0073	-0.0462	0.0165	0.9585
39.8601	-0.64472	0.45377	0.38203	-0.15528	-0.79502	0.70598	-2.2915	748.8583	-56.2125	279.3684	61.0542	800.5174	-0.0592	0.0182	-0.0073	-0.0462	0.0165	0.9585
39.8714	-0.79478	-0.62406	0.55558	0.25923	-1.0922	-0.63218	2.7585	753.417	-56.5935	280.7703	59.0361	798.5272	-0.0592	0.0182	-0.0073	-0.0462	0.0165	0.9585
39.8828	-0.89576	-2.1396	0.76431	0.83368	-1.4114	-2.5386	7.7177	757.7469	-56.9916	282.1313	57.0421	796.3591	-0.0592	0.0182	-0.0073	-0.0462	0.0165	0.9585
39.8941	-0.87726	-4.0836	0.9759	1.5574	-1.6816	-4.9995	12.4238	761.5056	-57.4867	283.3019	55.2012	793.7428	-0.0592	0.0182	-0.0073	-0.0462	0.0165	0.9585
39.9055	-0.61997	-6.2876	1.1226	2.3668	-1.7727	-7.788	16.7154	764.4247	-58.1828	284.1564	53.6729	790.4925	-0.0592	0.0182	-0.0073	-0.0462	0.0165	0.9585
39.9169	0.028962	-8.3887	1.1071	3.1246	-1.5022	-10.4719	20.5065	766.3254	-59.1488	284.6098	52.5632	786.4804	-0.0592	0.0182	-0.0073	-0.0462	0.0165	0.9585
39.9282	1.2404	-9.731	0.78241	3.5853	-0.62041	-12.2255	23.7618	767.2072	-60.398	284.6456	51.906	781.7471	-0.0592	0.0182	-0.0073	-0.0462	0.0165	0.9585
39.9396	3.2239	-9.314	-0.028713	3.3755	1.1711	-11.7901	26.5475	767.1741	-61.8584	284.299	51.6226	776.3787	-0.0592	0.0182	-0.0073	-0.0462	0.0165	0.9585
39.9509	6.0898	-5.7349	-1.5355	1.9726	4.1774	-7.4025	28.9821	766.4671	-63.3703	283.6616	51.5307	770.592	-0.0592	0.0182	-0.0073	-0.0462	0.0165	0.9585
39.9623	9.8775	2.7601	-3.928	-1.2781	8.6465	3.1425	31.2823	765.2917	-64.7602	282.8199	51.4022	764.5541	-0.0592	0.0182	-0.0073	-0.0462	0.0165	0.9585
39.9736	14.3649	18.1644	-7.3249	-7.1165	14.6397	22.3616	33.6245	763.6064	-65.8397	281.7717	50.9999	758.2011	-0.0592	0.0182	-0.0073	-0.0462	0.0165	0.9585
39.985	18.9867	42.3513	-11.6849	-16.235	21.8758	52.6079	36.1826	760.8323	-66.4346	280.3196	50.1037	750.9384	-0.0592	0.0182	-0.0073	-0.0462	0.0165	0.9585
39.9964	22.6512	76.5371	-16.6837	-29.0669	29.5091	95.4437	39.0438	755.7369	-66.3958	278.0244	48.5405	741.5782	-0.0592	0.0182	-0.0073	-0.0462	0.0165	0.9585
40.0077	23.6597	120.4472	-21.5533	-45.4773	35.9199	150.5634	42.2248	746.6162	-65.5752	274.2766	46.1658	728.4788	-0.0592	0.0182	-0.0073	-0.0462	0.0165	0.9585
40.0191	20.3319	171.9134	-25.1131	-64.6021	39	215.3473	45.5998	731.6627	-63.847	268.4301	42.9075	709.9402	-0.0592	0.0182	-0.0073	-0.0462	0.0165	0.9585
40.0304	12.2531	226.7536	-25.9044	-84.8022	36.7256	284.586	48.9264	709.3158	-61.0956	259.934	38.7532	684.541	-0.0592	0.0182	-0.0073	-0.0462	0.0165	0.9585
40.0418	1.3667	279.3846	-22.2645	-103.9363	27.8546	351.167	51.8536	678.5331	-57.3105	248.4226	33.8348	651.4034	-0.0592	0.0182	-0.0073	-0.0462	0.0165	0.9585
40.0531	-9.6563	325.7357	-14.4605	-120.5248	13.7554	409.5833	54.0401	638.9381	-52.577	233.7675	28.3745	610.2781	-0.0592	0.0182	-0.0073	-0.0462	0.0165	0.9585
40.0645	-19.3143	365.0265	-4.2004	-134.3326	-2.8693	458.5761	55.1483	590.936	-47.099	216.1068	22.6898	561.6806	-0.0592	0.0182	-0.0073	-0.0462	0.0165	0.9585
